<!-- icon666.com - MILLIONS vector ICONS FREE --><svg id="svg1144" viewBox="0 0 8.4666667 8.4666667" xmlns="http://www.w3.org/2000/svg" xmlns:svg="http://www.w3.org/2000/svg"><g id="layer2"><path id="path824" d="m4.3982133 0c-1.0178439-.00012304-1.9240479.54001101-2.4391279 1.3611569h-.04134c-1.07094911 0-1.9177121.884921-1.9177121 1.965255 0 1.0803329.85553306 1.9643686 1.9177121 1.9647379l1.521838.0005291v-1.8520838c0-.4273691.341304-.7932331.7927171-.7932331.4514127 0 .7952999.3678219.7952999.7932331v1.8520838l2.0174149-.0005291c.7873441-.0002065 1.4216181-.6461901 1.4216181-1.4552079 0-.737335-.5145971-1.350003-1.2185301-1.439189-.2674722-1.394545-1.4768764-2.39658693-2.84989-2.3967529zm.2718181 1.1642699c.6770539 0 1.2556519.476705 1.3477208 1.146183.04547.350357-.4800788.418574-.5255487.06821-.04379-.367305-.3836012-.685229-.8221721-.685229-.3501565-.0062-.3526373-.5262407 0-.529164zm-.436666 2.0107299c-.1490501 0-.264583.1209252-.264583.2645831v3.0659628l-.6082321-.6087478c-.2518778-.2520891-.6269721.1213059-.3720698.3762039l1.0578168 1.0578169c.1035075.1035075.271146.1035081.374654 0l1.059883-1.0598838c.258944-.2500871-.12905-.630768-.375171-.373104l-.607714.6077148v-3.0659628c0-.1457291-.115534-.2645831-.2645839-.2645831zm-1.3234331 4.7625c-.3529499 0-.3529499.529167 0 .529167h2.6468671c.3539839 0 .3539839-.529167 0-.529167z" fill="#000000" style="fill: rgb(255, 255, 255);"></path></g></svg>